<?xml version="1.0" encoding="UTF-8"?>
<svg xmlns="http://www.w3.org/2000/svg" xmlns:xlink="http://www.w3.org/1999/xlink" viewBox="0 0 24 24"
     version="1.1">
    <g>
        <path style=" stroke:none;fill-rule:nonzero;fill:rgb(100%,100%,100%);fill-opacity:1;" d="M 11 3 C 9.898438 3 9 3.898438 9 5 L 9 8.023438 C 10.207031 8.933594 11 10.371094 11 12 L 11 5 L 21 5 L 21 19 L 13 19 L 13 21 L 23 21 L 23 5 C 23 3.898438 22.101562 3 21 3 Z M 13 7 L 13 9 L 15 9 L 15 7 Z M 17 7 L 17 9 L 19 9 L 19 7 Z M 6 9 C 4.316406 9 3 10.316406 3 12 C 3 13.683594 4.316406 15 6 15 C 7.683594 15 9 13.683594 9 12 C 9 10.316406 7.683594 9 6 9 Z M 6 11 C 6.578125 11 7 11.421875 7 12 C 7 12.578125 6.578125 13 6 13 C 5.421875 13 5 12.578125 5 12 C 5 11.421875 5.421875 11 6 11 Z M 13 11 L 13 13 L 15 13 L 15 11 Z M 17 11 L 17 13 L 19 13 L 19 11 Z M 13 15 L 13 17 L 15 17 L 15 15 Z M 17 15 L 17 17 L 19 17 L 19 15 Z M 6 16 C 3.148438 16 1 17.457031 1 19.386719 L 1 21 L 11 21 L 11 19.386719 C 11 17.457031 8.851562 16 6 16 Z M 6 18 C 7.46875 18 8.488281 18.503906 8.855469 19 L 3.148438 19 C 3.511719 18.503906 4.53125 18 6 18 Z M 6 18 "/>
    </g>
</svg>
